<?xml version="1.0" encoding="UTF-8"?>
<svg id="Layer_20" data-name="Layer 20" xmlns="http://www.w3.org/2000/svg" viewBox="0 0 750 750">
  <defs>
    <style>
      .cls-1, .cls-2 {
        fill: none;
      }

      .cls-3, .cls-4 {
        fill: #1c447f;
      }

      .cls-3, .cls-2 {
        stroke: #1c447f;
        stroke-linecap: round;
        stroke-linejoin: round;
        stroke-width: 30px;
      }
    </style>
  </defs>
  <g>
    <path class="cls-2" d="M704.78,642.48l-142.14,29.3c-2.02.66-4.16-1.82-4.71-1.94.28-2-1.03-3.88-.83-5.86.81-7.96,8.61-24.77,10.99-34.15,6.48-25.48,10.32-54.82-3.88-78.75-3.54-5.96-5.09-7.39-10.48-12.15-16.2-14.33-31.73-17.31-53.4-10.28-9.37,3.03-10.36,4.14-17.79,9.34-.75.52-1.58.66-3.15,1.87-45.81,35.67-33.57,97.39-9.5,140.82.64,5.17-2.41,11.72-8.66,12.68l-175.97,36.03-3.77-1.57c-3.39-12.42-1.57-25.26-2.04-37.91-1.55-41.27-3.58-82.95-5.33-124.29-.46-10.89,1.74-28.7-1.81-38.59-3.68-10.26-14.63-4.97-21.51-1.01-20.5,11.78-29.99,23.23-56.21,29.74-24.29,6.03-35.1,1.68-57.6-3.75.07-1.92-5.37-4.92-6.83-5.6-1.53-.71-3.03-1.43-4.69-1.88-4.25-4.97-10.76-9.86-14.66-14.96-3.52-4.61-9.56-15.34-11.52-20.57-10.34-27.69-5.24-61.21,11.52-86.02,1.52-2.26,4.54-6.38,6.28-8.42,1.37-1.61,4.7-5.07,6.28-6.54,2.12-1.97,5.91-4.76,8.38-6.54,8.07-5.86,19.86-12.34,29.91-14.91,5.66-1.45,12.23-1.19,17.22-3.79.68.07,1.41-.06,2.1,0,1.16,1.66,4.3.8,6.28.94,14.71,1.04,29.77,4.84,42.98,10.71,4.67,2.08,16.14,9.92,19.54,10.6,2.18.44,12.48.6,14.28.05,1.48-.45,3.29-3.87,3.59-5.21,3.29-14.77-4.38-152.56-4.95-184.03-.1-6.03-2.25-10.74,1-17.26-5.75-.23,159.53-3.87,183.77-5.63,9.98-.73,14.49-3.09,11.56-13.11-1.87-6.41-12-18.97-15.76-26.13-16.36-31.04-22.84-68.7-3.64-100.08,1.16-1.91,2.94-4.88,4.19-6.54.99-1.31,5.17-6.35,6.28-7.48,1.97-2.01,5.88-3.75,7.33-6.54l19.89-10.29c20.34-2.55,29.26-4.71,48.49,4.86,45.61,22.68,52.69,80.57,35.03,120.68-3.91,8.89-16.92,26.66-16.03,35.34.18,1.7,1.55,5.56,3.11,6.56,0,0,129.03-1.82,149.87-.11,5.08.41,7.82,6.1,7.82,6.1l2.11,158.08s-2.24,12.91-9.46,12.58c-11.04-4.86-20.74-14.03-32.67-17.11-18.81-4.86-36.69.41-51.1,11.5-30.73,23.66-35.8,69.69-18.84,100.99,2.64,4.88,3.63,6.72,7.33,11.22,19.52,23.79,39.44,24.03,67.02,10.29,10.55-5.26,17.22-9.82,25.93-17.44,1.8-1.57,1.54-1.84,1.29-4.06,9.25-.17,11.49,2.84,12.55,10.76-.17,50.16,2.16,150.49,2.16,150.49,0,0,1.76,16.51-7.13,18.97Z"/>
    <g>
      <path class="cls-3" d="M267.63,399.86c-.29,1.34-2.11,4.76-3.59,5.21-1.8.55-12.1.39-14.28-.05-3.4-.67-14.87-8.52-19.54-10.6-13.21-5.87-28.27-9.67-42.98-10.71-1.98-.14-5.12.72-6.28-.94,2.03.19,4.22-.12,6.28,0-1.11-46.39-2.93-92.61-4.15-138.89-.31-11.9-2.35-24.45-1.13-36.48.43-4.33.81-5.37,5.28-6.97,7.86-2.8,70.69-2.1,76.43-1.86-3.25,6.52-1.1,11.23-1,17.26.57,31.47,1.07,63.06,3.14,94.44l1.05,36.47c-2.89,15.77,4.06,38.35.77,53.12Z"/>
      <path class="cls-3" d="M281.48,727.82c-22.97-9.97-51.8-16.43-74.02-26.95-2.25-1.07-4.61-1.89-6.03-3.96l-6.86-141.15c26.23-6.52,35.72-17.97,56.21-29.74,6.88-3.96,17.83-9.25,21.51,1.01,3.55,9.9,1.35,27.7,1.81,38.59,1.75,41.34,3.77,83.02,5.33,124.29.47,12.65-1.34,25.49,2.04,37.91Z"/>
      <path class="cls-3" d="M459,179.84c2.94,10.02-1.57,12.38-11.56,13.11-24.23,1.76-51.38.44-75.91.95,4.33-11.4-7.55-21.86-13.14-31.75-16.83-29.83-24.36-65.56-5.7-96.36,1.76-2.92,4.28-5.02,6.28-7.48,2.22-2.73,3.24-4.68,6.28-7.48,2.37-2.18,6.18-5.9,9.43-6.54,5.34-5.27,15.19-8.43,22.81-10.03,24.38-5.1,54.68-8.33,79.81-11.48l-19.89,10.29c-1.45,2.8-5.36,4.53-7.33,6.54-1.11,1.13-5.3,6.17-6.28,7.48-1.26,1.67-3.03,4.63-4.19,6.54-19.2,31.37-12.72,69.04,3.64,100.08,3.76,7.16,13.89,19.72,15.76,26.13Z"/>
      <path class="cls-3" d="M695.91,466.33c-8.71,7.62-15.38,12.18-25.93,17.44-27.58,13.74-47.49,13.5-67.02-10.29-3.7-4.49-4.69-6.34-7.33-11.22l11.46-8.94c5.52-.68,94.1,8.33,94.78,8.32.25,2.23-4.16,3.11-5.96,4.69Z"/>
      <path class="cls-3" d="M110.81,422.99c-16.77,24.81-21.86,58.34-11.52,86.02,1.96,5.23,8,15.96,11.52,20.57,3.9,5.1,10.41,9.99,14.66,14.96,1.66.45,3.16,1.17,4.69,1.88,1.46.68,6.9,3.68,6.83,5.6-24.27-5.85-58.39-11.29-78.53-23.37-9.34-5.61-13.16-8.67-19.9-16.83-6.59-8-10.49-14.68-13.61-24.31-8.8-27.16-3.86-52.3,12.57-75.74,1.84-2.62,2.82-4.79,5.23-7.48,2.54-2.82,4.72-4.19,7.33-6.54,3.8-3.4,5.16-4.55,9.43-7.48,38.27-26.3,75.85-11.82,119.37-7.48-4.99,2.6-11.56,2.34-17.22,3.79-10.05,2.57-21.83,9.05-29.91,14.91-2.46,1.79-6.26,4.58-8.38,6.54-1.58,1.47-4.91,4.93-6.28,6.54-1.74,2.04-4.76,6.16-6.28,8.42Z"/>
      <path class="cls-1" d="M698.25,366.88l-83.77-5.61c14.41-11.09,32.29-16.36,51.1-11.5,11.93,3.08,21.63,12.25,32.67,17.11Z"/>
      <path class="cls-3" d="M557.11,663.98c-.2,1.98,3.38,7.01,3.1,9.01-28.06-6.03-45.98-16.72-73.87-23.55-4.48-1.59-4.92-4.84-4.39-8.69,1.3-9.56,9.92-31.18,12.05-41.76,5.92-29.46-5.02-37.86-14.59-59.13,1.56-1.22,2.39-1.35,3.15-1.87,7.43-5.21,8.42-6.31,17.79-9.34,21.67-7.03,37.2-4.05,53.4,10.28,5.39,4.77,6.93,6.19,10.48,12.15,14.2,23.93,10.36,53.26,3.88,78.75-2.38,9.37-10.18,26.19-10.99,34.15Z"/>
    </g>
  </g>
  <g>
    <path class="cls-2" d="M704.78,642.48l-142.14,29.3c-2.02.66-4.16-1.82-4.71-1.94.28-2-1.03-3.88-.83-5.86.81-7.96,8.61-24.77,10.99-34.15,6.48-25.48,10.32-54.82-3.88-78.75-3.54-5.96-5.09-7.39-10.48-12.15-16.2-14.33-31.73-17.31-53.4-10.28-9.37,3.03-10.36,4.14-17.79,9.34-.75.52-1.58.66-3.15,1.87-45.81,35.67-33.57,97.39-9.5,140.82.64,5.17-2.41,11.72-8.66,12.68l-175.97,36.03-3.77-1.57c-3.39-12.42-1.57-25.26-2.04-37.91-1.55-41.27-3.58-82.95-5.33-124.29-.46-10.89,1.74-28.7-1.81-38.59-3.68-10.26-14.63-4.97-21.51-1.01-20.5,11.78-29.99,23.23-56.21,29.74-24.29,6.03-35.1,1.68-57.6-3.75.07-1.92-5.37-4.92-6.83-5.6-1.53-.71-3.03-1.43-4.69-1.88-4.25-4.97-10.76-9.86-14.66-14.96-3.52-4.61-9.56-15.34-11.52-20.57-10.34-27.69-5.24-61.21,11.52-86.02,1.52-2.26,4.54-6.38,6.28-8.42,1.37-1.61,4.7-5.07,6.28-6.54,2.12-1.97,5.91-4.76,8.38-6.54,8.07-5.86,19.86-12.34,29.91-14.91,5.66-1.45,12.23-1.19,17.22-3.79.68.07,1.41-.06,2.1,0,1.16,1.66,4.3.8,6.28.94,14.71,1.04,29.77,4.84,42.98,10.71,4.67,2.08,16.14,9.92,19.54,10.6,2.18.44,12.48.6,14.28.05,1.48-.45,3.29-3.87,3.59-5.21,3.29-14.77-4.38-152.56-4.95-184.03-.1-6.03-2.25-10.74,1-17.26-5.75-.23,159.53-3.87,183.77-5.63,9.98-.73,14.49-3.09,11.56-13.11-1.87-6.41-12-18.97-15.76-26.13-16.36-31.04-22.84-68.7-3.64-100.08,1.16-1.91,2.94-4.88,4.19-6.54.99-1.31,5.17-6.35,6.28-7.48,1.97-2.01,5.88-3.75,7.33-6.54l19.89-10.29c20.34-2.55,29.26-4.71,48.49,4.86,45.61,22.68,52.69,80.57,35.03,120.68-3.91,8.89-16.92,26.66-16.03,35.34.18,1.7,1.55,5.56,3.11,6.56,0,0,129.03-1.82,149.87-.11,5.08.41,7.82,6.1,7.82,6.1l2.11,158.08s-2.24,12.91-9.46,12.58c-11.04-4.86-20.74-14.03-32.67-17.11-18.81-4.86-36.69.41-51.1,11.5-30.73,23.66-35.8,69.69-18.84,100.99,2.64,4.88,3.63,6.72,7.33,11.22,19.52,23.79,39.44,24.03,67.02,10.29,10.55-5.26,17.22-9.82,25.93-17.44,1.8-1.57,1.54-1.84,1.29-4.06,9.25-.17,11.49,2.84,12.55,10.76-.17,50.16,2.16,150.49,2.16,150.49,0,0,1.76,16.51-7.13,18.97Z"/>
    <g>
      <path class="cls-3" d="M267.63,399.86c-.29,1.34-2.11,4.76-3.59,5.21-1.8.55-12.1.39-14.28-.05-3.4-.67-14.87-8.52-19.54-10.6-13.21-5.87-28.27-9.67-42.98-10.71-1.98-.14-5.12.72-6.28-.94,2.03.19,4.22-.12,6.28,0-1.11-46.39-2.93-92.61-4.15-138.89-.31-11.9-2.35-24.45-1.13-36.48.43-4.33.81-5.37,5.28-6.97,7.86-2.8,70.69-2.1,76.43-1.86-3.25,6.52-1.1,11.23-1,17.26.57,31.47,1.07,63.06,3.14,94.44l1.05,36.47c-2.89,15.77,4.06,38.35.77,53.12Z"/>
      <path class="cls-3" d="M281.48,727.82c-22.97-9.97-51.8-16.43-74.02-26.95-2.25-1.07-4.61-1.89-6.03-3.96l-6.86-141.15c26.23-6.52,35.72-17.97,56.21-29.74,6.88-3.96,17.83-9.25,21.51,1.01,3.55,9.9,1.35,27.7,1.81,38.59,1.75,41.34,3.77,83.02,5.33,124.29.47,12.65-1.34,25.49,2.04,37.91Z"/>
      <path class="cls-3" d="M459,179.84c2.94,10.02-1.57,12.38-11.56,13.11-24.23,1.76-51.38.44-75.91.95,4.33-11.4-7.55-21.86-13.14-31.75-16.83-29.83-24.36-65.56-5.7-96.36,1.76-2.92,4.28-5.02,6.28-7.48,2.22-2.73,3.24-4.68,6.28-7.48,2.37-2.18,6.18-5.9,9.43-6.54,5.34-5.27,15.19-8.43,22.81-10.03,24.38-5.1,54.68-8.33,79.81-11.48l-19.89,10.29c-1.45,2.8-5.36,4.53-7.33,6.54-1.11,1.13-5.3,6.17-6.28,7.48-1.26,1.67-3.03,4.63-4.19,6.54-19.2,31.37-12.72,69.04,3.64,100.08,3.76,7.16,13.89,19.72,15.76,26.13Z"/>
      <path class="cls-3" d="M695.91,466.33c-8.71,7.62-15.38,12.18-25.93,17.44-27.58,13.74-47.49,13.5-67.02-10.29-3.7-4.49-4.69-6.34-7.33-11.22l11.46-8.94c5.52-.68,94.1,8.33,94.78,8.32.25,2.23-4.16,3.11-5.96,4.69Z"/>
      <path class="cls-3" d="M110.81,422.99c-16.77,24.81-21.86,58.34-11.52,86.02,1.96,5.23,8,15.96,11.52,20.57,3.9,5.1,10.41,9.99,14.66,14.96,1.66.45,3.16,1.17,4.69,1.88,1.46.68,6.9,3.68,6.83,5.6-24.27-5.85-58.39-11.29-78.53-23.37-9.34-5.61-13.16-8.67-19.9-16.83-6.59-8-10.49-14.68-13.61-24.31-8.8-27.16-3.86-52.3,12.57-75.74,1.84-2.62,2.82-4.79,5.23-7.48,2.54-2.82,4.72-4.19,7.33-6.54,3.8-3.4,5.16-4.55,9.43-7.48,38.27-26.3,75.85-11.82,119.37-7.48-4.99,2.6-11.56,2.34-17.22,3.79-10.05,2.57-21.83,9.05-29.91,14.91-2.46,1.79-6.26,4.58-8.38,6.54-1.58,1.47-4.91,4.93-6.28,6.54-1.74,2.04-4.76,6.16-6.28,8.42Z"/>
      <path class="cls-1" d="M698.25,366.88l-83.77-5.61c14.41-11.09,32.29-16.36,51.1-11.5,11.93,3.08,21.63,12.25,32.67,17.11Z"/>
      <path class="cls-3" d="M557.11,663.98c-.2,1.98,3.38,7.01,3.1,9.01-28.06-6.03-45.98-16.72-73.87-23.55-4.48-1.59-4.92-4.84-4.39-8.69,1.3-9.56,9.92-31.18,12.05-41.76,5.92-29.46-5.02-37.86-14.59-59.13,1.56-1.22,2.39-1.35,3.15-1.87,7.43-5.21,8.42-6.31,17.79-9.34,21.67-7.03,37.2-4.05,53.4,10.28,5.39,4.77,6.93,6.19,10.48,12.15,14.2,23.93,10.36,53.26,3.88,78.75-2.38,9.37-10.18,26.19-10.99,34.15Z"/>
    </g>
  </g>
  <g>
    <path class="cls-2" d="M704.78,642.48l-142.14,29.3c-2.02.66-4.16-1.82-4.71-1.94.28-2-1.03-3.88-.83-5.86.81-7.96,8.61-24.77,10.99-34.15,6.48-25.48,10.32-54.82-3.88-78.75-3.54-5.96-5.09-7.39-10.48-12.15-16.2-14.33-31.73-17.31-53.4-10.28-9.37,3.03-10.36,4.14-17.79,9.34-.75.52-1.58.66-3.15,1.87-45.81,35.67-33.57,97.39-9.5,140.82.64,5.17-2.41,11.72-8.66,12.68l-175.97,36.03-3.77-1.57c-3.39-12.42-1.57-25.26-2.04-37.91-1.55-41.27-3.58-82.95-5.33-124.29-.46-10.89,1.74-28.7-1.81-38.59-3.68-10.26-14.63-4.97-21.51-1.01-20.5,11.78-29.99,23.23-56.21,29.74-24.29,6.03-35.1,1.68-57.6-3.75.07-1.92-5.37-4.92-6.83-5.6-1.53-.71-3.03-1.43-4.69-1.88-4.25-4.97-10.76-9.86-14.66-14.96-3.52-4.61-9.56-15.34-11.52-20.57-10.34-27.69-5.24-61.21,11.52-86.02,1.52-2.26,4.54-6.38,6.28-8.42,1.37-1.61,4.7-5.07,6.28-6.54,2.12-1.97,5.91-4.76,8.38-6.54,8.07-5.86,19.86-12.34,29.91-14.91,5.66-1.45,12.23-1.19,17.22-3.79.68.07,1.41-.06,2.1,0,1.16,1.66,4.3.8,6.28.94,14.71,1.04,29.77,4.84,42.98,10.71,4.67,2.08,16.14,9.92,19.54,10.6,2.18.44,12.48.6,14.28.05,1.48-.45,3.29-3.87,3.59-5.21,3.29-14.77-4.38-152.56-4.95-184.03-.1-6.03-2.25-10.74,1-17.26-5.75-.23,159.53-3.87,183.77-5.63,9.98-.73,14.49-3.09,11.56-13.11-1.87-6.41-12-18.97-15.76-26.13-16.36-31.04-22.84-68.7-3.64-100.08,1.16-1.91,2.94-4.88,4.19-6.54.99-1.31,5.17-6.35,6.28-7.48,1.97-2.01,5.88-3.75,7.33-6.54l19.89-10.29c20.34-2.55,29.26-4.71,48.49,4.86,45.61,22.68,52.69,80.57,35.03,120.68-3.91,8.89-16.92,26.66-16.03,35.34.18,1.7,1.55,5.56,3.11,6.56,0,0,129.03-1.82,149.87-.11,5.08.41,7.82,6.1,7.82,6.1l2.11,158.08s-2.24,12.91-9.46,12.58c-11.04-4.86-20.74-14.03-32.67-17.11-18.81-4.86-36.69.41-51.1,11.5-30.73,23.66-35.8,69.69-18.84,100.99,2.64,4.88,3.63,6.72,7.33,11.22,19.52,23.79,39.44,24.03,67.02,10.29,10.55-5.26,17.22-9.82,25.93-17.44,1.8-1.57,1.54-1.84,1.29-4.06,9.25-.17,11.49,2.84,12.55,10.76-.17,50.16,2.16,150.49,2.16,150.49,0,0,1.76,16.51-7.13,18.97Z"/>
    <g>
      <path class="cls-3" d="M267.63,399.86c-.29,1.34-2.11,4.76-3.59,5.21-1.8.55-12.1.39-14.28-.05-3.4-.67-14.87-8.52-19.54-10.6-13.21-5.87-28.27-9.67-42.98-10.71-1.98-.14-5.12.72-6.28-.94,2.03.19,4.22-.12,6.28,0-1.11-46.39-2.93-92.61-4.15-138.89-.31-11.9-2.35-24.45-1.13-36.48.43-4.33.81-5.37,5.28-6.97,7.86-2.8,70.69-2.1,76.43-1.86-3.25,6.52-1.1,11.23-1,17.26.57,31.47,1.07,63.06,3.14,94.44l1.05,36.47c-2.89,15.77,4.06,38.35.77,53.12Z"/>
      <path class="cls-3" d="M281.48,727.82c-22.97-9.97-51.8-16.43-74.02-26.95-2.25-1.07-4.61-1.89-6.03-3.96l-6.86-141.15c26.23-6.52,35.72-17.97,56.21-29.74,6.88-3.96,17.83-9.25,21.51,1.01,3.55,9.9,1.35,27.7,1.81,38.59,1.75,41.34,3.77,83.02,5.33,124.29.47,12.65-1.34,25.49,2.04,37.91Z"/>
      <path class="cls-3" d="M459,179.84c2.94,10.02-1.57,12.38-11.56,13.11-24.23,1.76-51.38.44-75.91.95,4.33-11.4-7.55-21.86-13.14-31.75-16.83-29.83-24.36-65.56-5.7-96.36,1.76-2.92,4.28-5.02,6.28-7.48,2.22-2.73,3.24-4.68,6.28-7.48,2.37-2.18,6.18-5.9,9.43-6.54,5.34-5.27,15.19-8.43,22.81-10.03,24.38-5.1,54.68-8.33,79.81-11.48l-19.89,10.29c-1.45,2.8-5.36,4.53-7.33,6.54-1.11,1.13-5.3,6.17-6.28,7.48-1.26,1.67-3.03,4.63-4.19,6.54-19.2,31.37-12.72,69.04,3.64,100.08,3.76,7.16,13.89,19.72,15.76,26.13Z"/>
      <path class="cls-3" d="M695.91,466.33c-8.71,7.62-15.38,12.18-25.93,17.44-27.58,13.74-47.49,13.5-67.02-10.29-3.7-4.49-4.69-6.34-7.33-11.22l11.46-8.94c5.52-.68,94.1,8.33,94.78,8.32.25,2.23-4.16,3.11-5.96,4.69Z"/>
      <path class="cls-3" d="M110.81,422.99c-16.77,24.81-21.86,58.34-11.52,86.02,1.96,5.23,8,15.96,11.52,20.57,3.9,5.1,10.41,9.99,14.66,14.96,1.66.45,3.16,1.17,4.69,1.88,1.46.68,6.9,3.68,6.83,5.6-24.27-5.85-58.39-11.29-78.53-23.37-9.34-5.61-13.16-8.67-19.9-16.83-6.59-8-10.49-14.68-13.61-24.31-8.8-27.16-3.86-52.3,12.57-75.74,1.84-2.62,2.82-4.79,5.23-7.48,2.54-2.82,4.72-4.19,7.33-6.54,3.8-3.4,5.16-4.55,9.43-7.48,38.27-26.3,75.85-11.82,119.37-7.48-4.99,2.6-11.56,2.34-17.22,3.79-10.05,2.57-21.83,9.05-29.91,14.91-2.46,1.79-6.26,4.58-8.38,6.54-1.58,1.47-4.91,4.93-6.28,6.54-1.74,2.04-4.76,6.16-6.28,8.42Z"/>
      <path class="cls-1" d="M698.25,366.88l-83.77-5.61c14.41-11.09,32.29-16.36,51.1-11.5,11.93,3.08,21.63,12.25,32.67,17.11Z"/>
      <path class="cls-3" d="M557.11,663.98c-.2,1.98,3.38,7.01,3.1,9.01-28.06-6.03-45.98-16.72-73.87-23.55-4.48-1.59-4.92-4.84-4.39-8.69,1.3-9.56,9.92-31.18,12.05-41.76,5.92-29.46-5.02-37.86-14.59-59.13,1.56-1.22,2.39-1.35,3.15-1.87,7.43-5.21,8.42-6.31,17.79-9.34,21.67-7.03,37.2-4.05,53.4,10.28,5.39,4.77,6.93,6.19,10.48,12.15,14.2,23.93,10.36,53.26,3.88,78.75-2.38,9.37-10.18,26.19-10.99,34.15Z"/>
    </g>
  </g>
  <path class="cls-4" d="M726.89,622.6c-.19-8.19-2.3-102.08-2.14-149.53,0-.68-.04-1.36-.13-2.04-1.4-10.48-5.89-17.51-13.33-21.06-2.34-1.89-5.26-3.09-8.43-3.3-.88-.08-4.68-.45-9.04-.88-76.59-7.53-85.03-7.8-88.58-7.36-.82.1-1.63.28-2.42.51-2.02-8.87-2.36-18.39-.85-27.64,2.58-15.84,10.26-29.39,21.65-38.15,5.42-4.17,12.99-8.47,22.17-9.79l16.63,1.11c4.63,1.34,9.55,4.43,14.76,7.71,4.68,2.95,9.51,5.99,15.03,8.42,1.69.75,3.51,1.17,5.36,1.25,14.11.66,22.67-12.09,24.92-25,.16-.92.23-1.84.22-2.77l-2.11-158.08c-.03-2.19-.54-4.35-1.49-6.32-1.08-2.24-7.14-13.48-20.11-14.53-17.08-1.4-100.57-.56-135.77-.14,1.66-3.13,3.56-6.41,4.9-8.73,2.5-4.31,4.86-8.38,6.42-11.93,10.38-23.58,12.96-51.42,7.08-76.37-6.78-28.75-24.24-51.4-49.16-63.79-21.83-10.86-34.72-9.19-52.57-6.88-1.43.18-2.91.38-4.46.57,0,0,0,0,0,0-4.35.54-8.86,1.09-13.47,1.65-21.93,2.66-46.78,5.68-67.56,10.03-8.29,1.74-19.35,5.13-27.43,11.54-4.84,2.16-8.64,5.68-11.37,8.21l-.51.47c-3.14,2.89-4.92,5.29-6.35,7.22-.43.58-.87,1.18-1.4,1.84-.38.47-.98,1.1-1.6,1.77-1.66,1.77-3.94,4.2-5.87,7.41-19.18,31.66-17.23,71.26,5.48,111.51,1.85,3.26,4,6.26,6.08,9.16.49.69,1.09,1.52,1.72,2.41-14.79.4-29.39.78-42.24,1.11-13.68.36-25.62.67-34.15.9-4.3.12-7.73.22-10.09.3-1.25.04-2.21.08-2.86.11-.18,0-.36.03-.54.04-4.92-.13-20.85-.32-37.12-.19-36.52.3-40.97,1.89-43.91,2.93-12.06,4.29-14.43,11.96-15.19,19.59-.93,9.22-.27,18.11.37,26.7.31,4.1.59,7.97.69,11.68.56,21.06,1.25,42.45,1.92,63.13.63,19.5,1.27,39.51,1.81,59.45-5.99-.77-11.93-1.67-17.74-2.56-33.47-5.15-68.07-10.47-103.09,13.6-4.95,3.4-6.83,4.99-10.97,8.7-.65.58-1.31,1.12-2.08,1.75-1.76,1.44-3.95,3.22-6.38,5.92-2.46,2.74-3.93,5.09-5.12,6.99-.45.72-.84,1.34-1.24,1.91-19.69,28.09-24.58,58.02-14.56,88.98,3.58,11.05,8.31,19.52,16.31,29.24,7.57,9.17,12.68,13.5,23.75,20.14,18.04,10.81,43.9,16.48,66.72,21.47,5.69,1.25,11.07,2.42,16,3.61,0,0,0,0,0,0,2.64.63,5.11,1.26,7.46,1.85,13.76,3.45,24.71,6.19,39.49,4.94l6.04,124.26c.13,2.77,1.04,5.45,2.6,7.74,3.57,5.21,8.34,7.38,11.19,8.68.26.12.53.24.8.37,12.73,6.03,27.17,10.71,41.13,15.23,11.97,3.88,23.28,7.55,33.33,11.91.04.02.07.03.11.04.03.01.06.03.1.05l3.77,1.57c1.84.77,3.8,1.15,5.77,1.15,1.01,0,2.01-.1,3.01-.3l175.68-35.97c14.81-2.53,22.34-17.08,20.83-29.28-.24-1.91-.84-3.75-1.77-5.43-2.18-3.94-4.19-7.92-6.03-11.92,1.74,1.06,3.32,1.72,4.32,2.07.48.17.97.32,1.46.44,12.34,3.02,22.55,6.83,33.35,10.87,12.33,4.61,25.08,9.37,40.94,12.78,1.04.22,2.1.33,3.15.33,2.54,0,5.04-.65,7.28-1.89l140.33-28.92c.33-.07.65-.15.97-.24,15.35-4.25,19.35-20.99,18.11-34.34ZM702.78,446.67c-.3-.02-.6-.03-.91-.03-.07,0-.13,0-.2,0,.11,0,.48-.02,1.1.03ZM479.28,596.04c-.8,4-3.08,10.96-5.27,17.68-2.65,8.11-5.17,15.82-6.4,21.95-2.61-9.86-4.04-19.48-4.16-28.51-.22-16.42,3.85-30.46,12.1-41.95,4.75,9.29,6.72,16.03,3.74,30.83ZM696.97,628.78l-121.31,25c.11-.29.22-.59.32-.88.02-.05.04-.11.06-.16.17-.47.34-.92.5-1.37.1-.28.21-.56.31-.83.13-.34.26-.69.38-1.02,2.16-5.81,4.2-11.29,5.39-15.98,6.17-24.28,12.32-60.04-5.52-90.11-4.62-7.78-7.46-10.45-13.43-15.72-7.58-6.71-15.27-11.48-23.33-14.37-6.04-2.16-12.3-3.27-18.87-3.33-8.04-.08-16.55,1.4-25.76,4.38-8.27,2.68-11.84,4.5-16.37,7.55-1.05.71-2.15,1.48-3.37,2.34-.43.3-.88.62-1.34.95-.85.42-2.18,1.13-3.76,2.29-.23.17-.46.34-.7.52,0,0,0,0,0,0-24.47,19.06-37.17,46.56-36.73,79.53.31,22.74,7.03,48.1,19.06,72.27l-158.07,32.36c-.01-.33-.02-.66-.03-.99,0-.37-.02-.73-.02-1.1,0-.57-.01-1.14-.01-1.72,0-.34,0-.68,0-1.02,0-.65,0-1.31.02-1.97,0-.27,0-.54,0-.82.01-.92.03-1.85.05-2.78.07-4.02.15-8.17-.01-12.45-.25-6.6-.51-13.23-.78-19.88-.81-19.94-1.71-40-2.58-59.56-.67-14.99-1.34-29.97-1.97-44.91-.12-2.83-.02-6.59.09-10.57.3-10.76.64-22.96-2.77-32.45-.47-1.31-1.02-2.55-1.66-3.73-2.74-5.08-6.95-8.83-12.15-10.74-.68-.25-1.36-.46-2.03-.64-.23-.06-.46-.1-.69-.15-.45-.1-.89-.21-1.33-.29-.28-.05-.56-.07-.83-.11-.4-.05-.79-.12-1.18-.15-.3-.03-.59-.03-.89-.04-.37-.02-.75-.04-1.12-.05-.04,0-.09,0-.13,0-.53,0-1.06.02-1.59.05-.13,0-.25.02-.38.03-.47.03-.93.08-1.39.14-.17.02-.35.04-.52.07-.47.07-.94.14-1.4.23-.11.02-.22.04-.33.06-.57.11-1.13.24-1.69.39-.14.04-.27.07-.41.11-.43.12-.86.24-1.29.37-.17.05-.33.1-.5.15-.47.15-.93.31-1.39.47-.08.03-.17.06-.25.09-.54.2-1.07.41-1.6.62-.14.06-.28.12-.43.18-.4.17-.79.34-1.19.51-.15.07-.31.14-.46.21-.46.21-.92.43-1.38.65-.05.02-.09.04-.14.07-.5.25-.99.5-1.48.75-.14.07-.28.15-.42.22-.36.19-.72.39-1.08.58-.14.07-.27.15-.4.22-.46.26-.92.51-1.37.77-.84.48-1.67.97-2.48,1.45-5.68,3.39-10.58,6.73-14.97,9.72-1.35.92-2.66,1.81-3.95,2.68-9.06,6.08-17.29,10.95-30.95,14.34,0,0,0,0-.01,0-17.74,4.4-25.57,2.44-42.72-1.86-.86-.22-1.73-.43-2.62-.66-2.24-2.04-5.21-4.04-9.13-5.87l-.28-.13c-.66-.31-1.37-.64-2.16-.98-1.65-1.69-3.36-3.29-5.04-4.86-2.11-1.97-4.28-4-5.71-5.69-.2-.24-.39-.47-.57-.7-2.69-3.52-7.96-12.89-9.39-16.7-.79-2.12-1.47-4.29-2.05-6.49-5.56-21.36-1.14-46.51,11.96-65.9,1.31-1.94,3.99-5.58,5.25-7.06.99-1.16,3.93-4.22,5.07-5.29,1.08-1,3.43-2.82,6.98-5.4,6.53-4.74,16.74-10.45,24.82-12.52,1.27-.33,3.02-.56,4.88-.81.63-.09,1.29-.18,1.96-.27.21-.03.42-.06.63-.1.52-.08,1.04-.16,1.57-.25.25-.04.5-.09.75-.13.57-.1,1.15-.22,1.73-.35.2-.04.39-.08.58-.12.77-.18,1.55-.38,2.33-.61.04-.01.08-.02.12-.03.09.02.19.03.29.04.13.02.26.04.38.05.42.06.85.11,1.29.15.17.02.34.03.51.04.44.03.89.05,1.36.06.18,0,.35.01.53.01.64,0,1.3-.01,1.99-.05.11,0,.21-.01.32-.02,12.66.95,25.97,4.29,37.52,9.42,1.14.51,4.53,2.54,6.78,3.88,7.29,4.36,11.63,6.87,15.89,7.72.1.02.21.04.33.06.04,0,.08.01.11.02.09.01.18.03.27.04.05,0,.11.02.17.02.09.01.18.02.28.04.06,0,.13.02.19.02.1.01.21.02.31.04.07,0,.14.02.21.02.12.01.23.02.35.04.07,0,.14.01.22.02.13.01.26.02.4.04.07,0,.14.01.21.02.15.01.29.02.44.04.07,0,.15.01.22.02.16.01.32.02.49.04.07,0,.13,0,.2.01.19.01.38.02.58.04.05,0,.1,0,.15,0,.25.01.5.03.76.04,0,0,0,0,0,0,.8.04,1.64.07,2.5.1.04,0,.09,0,.13,0,.24,0,.47.01.71.02.07,0,.14,0,.21,0,.22,0,.43,0,.65,0,.08,0,.17,0,.25,0,.2,0,.4,0,.61,0,.04,0,.09,0,.13,0,.03,0,.06,0,.09,0,.45,0,.9,0,1.36-.01.05,0,.1,0,.14,0,.46,0,.93-.02,1.38-.04.01,0,.03,0,.04,0,.46-.02.92-.04,1.37-.06.02,0,.05,0,.07,0,.43-.03.86-.06,1.28-.09.05,0,.11,0,.16-.01.4-.04.79-.08,1.17-.12.06,0,.12-.01.18-.02.37-.05.73-.1,1.08-.15.05,0,.11-.02.16-.03.35-.06.68-.12,1-.19.04,0,.07-.02.1-.02.33-.07.64-.15.92-.24.34-.1.66-.21.98-.33.11-.04.21-.09.32-.13.21-.08.42-.16.62-.25.13-.06.25-.12.37-.18.18-.08.35-.17.53-.25.13-.07.25-.14.38-.21.16-.09.32-.17.48-.27.13-.08.25-.16.37-.23.15-.09.29-.18.44-.28.13-.08.25-.17.37-.26.13-.09.27-.19.4-.29.12-.09.24-.19.36-.28.12-.1.25-.19.37-.29.12-.1.24-.2.35-.3.11-.1.23-.2.34-.3.12-.11.23-.22.35-.33.1-.1.21-.2.31-.3.12-.12.23-.23.34-.35.09-.1.18-.19.27-.29.11-.12.22-.25.33-.37.08-.09.16-.19.24-.28.11-.13.22-.26.32-.4.07-.09.14-.18.22-.27.11-.14.21-.28.32-.42.06-.08.12-.17.18-.25.11-.15.21-.3.32-.45.05-.07.1-.15.15-.22.11-.16.21-.32.31-.47.04-.06.08-.13.12-.19.11-.17.21-.34.31-.51.03-.05.06-.1.09-.15.11-.18.21-.36.31-.54.02-.04.04-.07.06-.11.11-.19.21-.38.31-.57.01-.02.02-.04.03-.06.11-.2.21-.4.31-.6,0,0,0,0,0,0,1.44-2.94,1.98-5.28,1.99-5.31h0s0-.04.01-.07c.04-.2.08-.4.12-.62,1.11-5.4,1.28-11.11,1.01-16.9.21-20.56-1.17-57.87-3.73-117.48-.99-23.05-1.85-42.96-2.02-52.49,0-.56-.03-1.1-.06-1.62,0-.14-.02-.28-.03-.42,0-.14-.02-.29-.03-.43,8.87-.25,21.29-.57,34.11-.9,41.22-1.07,94.71-2.46,122.13-3.55,4.29-.13,8.54-.32,12.72-.6.74-.04,1.42-.09,2.02-.13,4.86-.36,16.24-1.19,22.58-10.33.25-.37.5-.74.72-1.12,3.42-5.67,3.95-12.67,1.56-20.81,0,0,0,0,0-.01,0,0,0,0,0-.01-.05-.16-.1-.32-.15-.49-.07-.22-.13-.44-.21-.66-.06-.17-.13-.34-.19-.52-.08-.22-.15-.43-.24-.65-.06-.17-.14-.33-.21-.5-.09-.23-.18-.45-.28-.68-.06-.14-.13-.29-.2-.43-.11-.25-.22-.51-.34-.76-.06-.13-.13-.27-.19-.4-.13-.27-.26-.54-.39-.81-.05-.11-.11-.21-.17-.32-.15-.3-.31-.6-.47-.9,0-.02-.02-.04-.03-.06-2.19-4.07-5.07-8.33-8.06-12.75-.57-.84-1.14-1.69-1.7-2.52-1.68-2.5-3.21-4.86-4.05-6.45-13.46-25.53-15.27-46.08-12.81-61.37,1.69-10.46,5.37-18.46,8.71-23.91l.41-.67c.7-1.15,1.92-3.16,2.67-4.25.11-.16.21-.29.29-.41.69-.91,3.7-4.53,4.83-5.8.24-.18.62-.45.91-.65,1.52-1.08,3.67-2.6,5.7-4.78l14.6-7.55c.65-.08,1.29-.17,1.92-.25,16.23-2.1,21.69-2.81,35.36,3.99,36.76,18.27,43.15,66.76,27.98,101.21-.89,2.03-2.94,5.56-4.92,8.97-6.59,11.38-13.42,23.15-12.3,33.96.05.49,1.36,12.13,9.94,17.63,2.48,1.59,5.4,2.39,8.31,2.37,32.66-.46,116.01-1.34,142.6-.45l1.89,141.67c-6.66-4.2-14.2-8.85-23.27-11.19-22.03-5.69-44.75-.67-64,14.13-17.45,13.43-29.16,33.72-32.96,57.11-3.52,21.66.15,44.59,10.08,62.91l.09.16c2.75,5.09,4.27,7.89,8.84,13.43.47.57.94,1.13,1.41,1.68.15.18.3.35.45.52.32.37.64.74.96,1.1.18.2.36.39.54.59.29.32.59.64.88.96.2.21.39.41.59.61.28.29.56.58.84.87.2.21.41.41.61.61.27.27.54.54.82.81.21.2.41.4.62.59.27.25.54.51.8.76.21.2.42.39.64.58.26.24.53.48.79.71.21.19.43.37.64.55.26.23.53.45.79.67.21.18.43.35.64.53.26.21.53.43.79.64.22.17.43.34.65.5.26.2.53.4.79.6.21.16.43.32.64.48.27.19.53.38.8.57.21.15.43.3.64.45.27.18.53.36.8.54.21.14.43.28.64.42.27.17.54.34.81.51.21.13.42.26.63.39.27.17.55.33.82.49.21.12.41.24.62.36.28.16.56.31.84.47.2.11.39.22.59.32.29.16.58.3.88.45.19.1.37.19.56.29.31.15.62.3.93.45.17.08.34.16.51.24.36.16.71.32,1.07.48.12.05.24.11.36.16.97.41,1.93.79,2.9,1.14.05.02.1.03.15.05.43.15.86.3,1.29.44.12.04.24.07.36.11.36.11.72.23,1.08.33.15.04.29.08.44.12.33.09.66.19,1,.27.16.04.32.08.49.12.32.08.63.16.95.23.17.04.33.07.5.11.31.07.62.14.94.2.17.03.34.07.51.1.31.06.61.11.92.17.17.03.34.06.51.08.31.05.61.1.92.14.17.02.34.05.51.07.31.04.61.08.92.11.17.02.34.04.51.05.31.03.62.06.93.09.16.01.33.03.49.04.31.02.62.04.93.06.16,0,.32.02.48.03.32.02.63.03.95.04.15,0,.31,0,.46.01.32,0,.64.01.96.01.1,0,.19,0,.29,0,.03,0,.07,0,.1,0,.79,0,1.57-.02,2.35-.05.08,0,.17,0,.25-.01.78-.04,1.56-.09,2.33-.16.08,0,.16-.01.25-.02.78-.07,1.55-.16,2.33-.26.07,0,.14-.02.22-.03.78-.1,1.57-.22,2.34-.35.05,0,.11-.02.16-.03.8-.14,1.59-.29,2.39-.45.02,0,.04,0,.06-.01,2.46-.51,4.89-1.15,7.28-1.89.03-.01.07-.02.1-.03.76-.24,1.52-.48,2.27-.74.06-.02.12-.04.18-.06.73-.25,1.46-.51,2.19-.77.08-.03.15-.06.23-.08.71-.26,1.42-.53,2.12-.81.09-.03.17-.07.26-.1.7-.28,1.39-.56,2.08-.85.09-.04.18-.07.26-.11.69-.29,1.37-.58,2.05-.88.08-.04.16-.07.25-.11.68-.3,1.36-.61,2.04-.92.07-.03.14-.06.2-.09.69-.32,1.37-.64,2.05-.97.05-.02.09-.04.14-.07.7-.34,1.39-.68,2.08-1.02.79-.39,1.56-.79,2.32-1.18.24-.12.47-.25.71-.37.52-.27,1.04-.55,1.55-.82.26-.14.52-.28.78-.42.49-.27.98-.54,1.46-.81.23-.13.47-.26.7-.39.65-.37,1.3-.75,1.94-1.12.08-.05.15-.09.23-.14.63-.37,1.25-.75,1.87-1.13.23-.14.46-.29.7-.44.43-.27.85-.54,1.27-.81.26-.17.51-.33.77-.5.41-.27.81-.54,1.21-.81.24-.16.49-.33.73-.49.52-.36,1.03-.72,1.55-1.09.1-.07.21-.15.31-.22.2,52.38,2.13,136.49,2.16,137.41.01.48.01.67.07,1.15.11,1.13.09,2.54-.01,3.77Z"/>
</svg>