<?xml version="1.0" encoding="UTF-8"?>
<svg id="Layer_8" data-name="Layer 8" xmlns="http://www.w3.org/2000/svg" viewBox="0 0 750 750">
  <defs>
    <style>
      .cls-1 {
        fill: #1c447f;
        fill-rule: evenodd;
      }
    </style>
  </defs>
  <path class="cls-1" d="M159.49,305.04l292.48-30.36c2.97-.26,5.75-1.6,7.82-3.77l101.8-102.79c2.5-2.61.64-6.97-2.95-6.93l-301.77,5.3c-3.81.04-7.4,1.84-9.71,4.9l-92.48,124.78c-2.89,3.81.08,9.28,4.82,8.86Z"/>
  <path class="cls-1" d="M743.75,404.76c.01-.35.01-.71,0-1.06,0-.17-.03-.33-.04-.5-.02-.23-.04-.45-.07-.67-.02-.17-.05-.34-.08-.52-.04-.22-.08-.43-.13-.65-.04-.16-.08-.33-.12-.49-.06-.23-.13-.46-.21-.68-.05-.14-.09-.28-.14-.42-.11-.3-.23-.59-.36-.88-.03-.06-.05-.12-.08-.18-.16-.35-.35-.68-.54-1.02-.06-.1-.12-.2-.19-.29-.14-.23-.29-.46-.45-.68-.08-.12-.17-.23-.26-.35-.15-.19-.3-.38-.46-.57-.1-.12-.2-.23-.3-.34-.16-.18-.33-.35-.5-.51-.11-.11-.22-.21-.33-.32-.2-.18-.41-.35-.62-.52-.1-.08-.19-.16-.28-.23-.3-.22-.61-.43-.93-.63-.14-.09-.29-.17-.43-.25-.2-.11-.4-.23-.61-.33-.16-.08-.32-.15-.48-.22-.12-.05-.23-.11-.35-.16l-219.07-91.9,161.81-169.1s.07-.08.11-.12c.09-.1.19-.21.28-.31.15-.17.3-.35.44-.53.08-.1.16-.21.24-.31.15-.2.29-.41.43-.62.06-.09.12-.18.18-.28.17-.28.33-.56.48-.85.02-.03.03-.06.05-.09.16-.32.31-.65.44-.98.04-.11.08-.22.12-.32.08-.22.16-.45.24-.68.04-.14.08-.28.12-.42.06-.21.11-.41.16-.62.03-.15.07-.29.1-.44.05-.24.08-.48.11-.72.02-.11.04-.23.05-.34.04-.34.06-.69.06-1.04,0-.12,0-.25,0-.37,0-.25,0-.5-.02-.76,0-.12-.02-.25-.03-.37-.03-.28-.06-.56-.11-.84-.01-.07-.01-.13-.02-.2l-.82-4.71c-3.66-20.86-12.12-40.56-24.48-57.48-.22-.32-.45-.64-.69-.94-5.67-7.63-12.15-14.68-19.33-21-4.87-4.28-10.06-8.23-15.44-11.73-15.82-10.34-33.3-17.14-51.98-20.21-.84-.14-1.7-.19-2.55-.17l-410.65,13.96c-1.01-.04-2.01-.06-3.02-.06-2.85,0-5.69.16-8.54.45h0c-.67.02-1.32.11-1.95.23-29.35,3.73-58.6,22.92-83.38,55.01-24.55,31.79-41.2,72-44.53,107.55l-1.4,14.87c-5.05,53.98,3.28,108.89,24.08,158.85l62.17,248.31c.49,1.94,1.72,3.6,3.44,4.62l213.17,126.76c.06.73.17,1.46.35,2.19,1.5,5.88,6.79,9.78,12.58,9.78,1.07,0,2.15-.13,3.23-.41l340.15-86.99c4.61-1.18,8.2-4.78,9.38-9.39l61.63-242.1c.02-.06.02-.13.04-.19.06-.27.12-.54.16-.82.02-.14.05-.28.07-.42,0-.04.02-.08.02-.13.03-.25.05-.5.06-.74,0-.14.02-.28.03-.42ZM285.6,455.22c-1.63.23-3.14.78-4.5,1.54l-199.92-95.2,411.11-43.22,190.13,79.76-396.83,57.12ZM574.16,439.95l-.91,78.88c-.24,21.13-7.47,41.93-20.34,58.58-12.07,15.61-34.01,18.81-49.95,7.29-23.87-17.26-38.62-44.14-40.45-73.74l-3.38-54.44,111.7-16.08,3.33-.48ZM488.16,292.63l-410.06,43.11,143.46-195.48,416.82-4.62-150.22,156.99ZM606.04,45.38l28.84,27.25,15.02,36.88-429.74,4.76-1.24-6.79c-3.62-19.82-14.1-45.04-28.87-64.83l376.18-12.79c14.26,2.51,27.64,7.72,39.81,15.51ZM658.44,635.69l-324.17,82.9-37.38-238.74,135.43-19.49,3.24,52.26c2.34,37.7,21.14,71.94,51.58,93.95,11.25,8.14,24.21,12.07,37.06,12.07,18.9,0,37.54-8.52,50.07-24.72,16.45-21.26,25.67-47.82,25.99-74.78l.95-82.74c0-.11-.01-.22-.01-.34l112.18-16.14-54.93,215.78Z"/>
  <path class="cls-1" d="M515.25,519.97v23.84c0,2.67,2.17,4.86,4.81,4.86h10.62c2.65,0,4.81-2.19,4.81-4.86v-25.28c6.03-4.81,10.06-13.37,10.06-23.17,0-15.06-9.49-27.28-21.21-27.28s-21.21,12.21-21.21,27.28c0,10.87,4.96,20.23,12.11,24.61Z"/>
  <polygon class="cls-1" points="480.87 339.83 167.88 371.99 304.31 432.24 607.26 392.11 480.87 339.83"/>
</svg>